<svg xmlns="http://www.w3.org/2000/svg" width="24" height="24" viewBox="0 0 24 24">
  <path d="M1.996 7.085C3.524 3.513 7.174 1.25 11.001 1.25C14.827 1.25 18.477 3.513 20.005 7.085C20.426 8.068 20.654 9.009 20.726 9.908C20.749 10.192 20.761 10.334 20.669 10.4C20.578 10.466 20.436 10.406 20.151 10.287C19.317 9.937 18.415 9.75 17.502 9.75C16.782 9.75 16.068 9.866 15.389 10.088C15.173 10.158 15.065 10.193 14.991 10.155C14.917 10.117 14.882 10.005 14.81 9.781C14.295 8.168 12.783 7 10.999 7C8.79 7 6.999 8.791 6.999 11C6.999 13.008 8.479 14.67 10.407 14.957C10.637 14.991 10.751 15.008 10.801 15.073C10.85 15.139 10.835 15.251 10.804 15.475C10.574 17.163 11.116 18.65 11.915 19.855C12.276 20.399 12.705 20.909 13.145 21.377C13.26 21.499 13.318 21.561 13.323 21.631C13.324 21.646 13.324 21.66 13.322 21.674C13.312 21.744 13.251 21.801 13.13 21.914C12.555 22.453 11.791 22.75 11.001 22.75C10.21 22.75 9.446 22.453 8.871 21.914L8.87 21.913C8.559 21.621 8.237 21.322 7.908 21.018L7.906 21.017C6.177 19.418 4.261 17.645 2.947 15.66C1.344 13.237 0.574 10.409 1.996 7.085Z" fill="currentColor"/>
  <path d="M17.501 11.25C15.45 11.25 13.483 12.459 12.656 14.388C11.882 16.193 12.31 17.737 13.164 19.026C13.854 20.065 14.859 20.992 15.735 21.8L15.735 21.8C15.901 21.952 16.061 22.1 16.214 22.244L16.216 22.246C16.565 22.572 17.026 22.75 17.501 22.75C17.976 22.75 18.437 22.572 18.786 22.246C18.932 22.11 19.083 21.971 19.239 21.828C20.124 21.014 21.143 20.078 21.839 19.026C22.693 17.736 23.119 16.191 22.347 14.388C21.519 12.459 19.553 11.25 17.501 11.25ZM17.492 14.5C16.392 14.5 15.501 15.395 15.501 16.5C15.501 17.605 16.392 18.5 17.492 18.5L17.51 18.5C18.61 18.5 19.501 17.605 19.501 16.5C19.501 15.395 18.61 14.5 17.51 14.5L17.492 14.5Z" fill="currentColor" fill-rule="evenodd"/>
</svg>
