<svg xmlns="http://www.w3.org/2000/svg" width="24" height="24" viewBox="0 0 24 24">
  <path d="M18.715 6.675L18.715 6.675L18.508 7.211C18.588 7.237 18.667 7.264 18.745 7.291C19.136 7.427 19.344 7.854 19.208 8.246C19.072 8.637 18.645 8.844 18.254 8.709C17.955 8.605 17.643 8.508 17.318 8.419C15.772 7.996 13.953 7.75 11.999 7.75C10.162 7.75 8.443 7.968 6.958 8.346C6.533 8.455 6.128 8.576 5.745 8.709C5.354 8.844 4.926 8.637 4.791 8.246C4.655 7.854 4.862 7.427 5.254 7.291C5.395 7.242 5.54 7.195 5.686 7.149L5.574 6.932C5.304 6.409 5.045 5.907 4.905 5.516C4.757 5.099 4.673 4.636 4.851 4.152C5.033 3.656 5.405 3.369 5.801 3.173C6.157 2.996 6.625 2.848 7.142 2.685L11.218 1.396C11.432 1.328 11.676 1.25 11.936 1.25C12.195 1.25 12.439 1.328 12.653 1.396L16.993 2.768C17.457 2.915 17.883 3.049 18.211 3.211C18.578 3.391 18.924 3.651 19.117 4.1C19.304 4.537 19.267 4.969 19.169 5.368C19.078 5.739 18.908 6.178 18.715 6.675Z" fill="currentColor"/>
  <path d="M7.001 7.25C7.415 7.25 7.751 7.586 7.751 8L7.751 9.725C7.751 11.262 8.541 12.68 9.82 13.463L10.335 13.778C11.361 14.407 12.641 14.407 13.667 13.778L14.182 13.463C15.461 12.68 16.251 11.262 16.251 9.725L16.251 8C16.251 7.586 16.587 7.25 17.001 7.25C17.415 7.25 17.751 7.586 17.751 8L17.751 9.725C17.751 11.774 16.698 13.681 14.965 14.742L14.451 15.058C12.944 15.981 11.058 15.981 9.551 15.058L9.037 14.742C7.304 13.681 6.251 11.774 6.251 9.725L6.251 8C6.251 7.586 6.587 7.25 7.001 7.25Z" fill="currentColor" fill-rule="evenodd"/>
  <path d="M9.239 13.289C9.632 13.42 9.844 13.844 9.713 14.237L8.871 16.764L9.864 17.631C10.505 18.191 10.934 18.564 11.292 18.805C11.633 19.034 11.831 19.088 12 19.088C12.169 19.088 12.367 19.034 12.708 18.805C13.066 18.564 13.495 18.191 14.136 17.631L15.129 16.764L14.287 14.237C14.156 13.844 14.368 13.42 14.761 13.289C15.154 13.158 15.578 13.37 15.709 13.763L16.59 16.407L18.048 16.894C18.969 17.201 19.536 17.39 20.046 17.686C20.544 17.975 20.996 18.338 21.387 18.762C21.585 18.977 21.86 19.395 22.081 19.802C22.222 20.061 22.394 20.376 22.463 20.697C22.555 21.122 22.472 21.512 22.244 21.895C21.989 22.324 21.632 22.563 21.192 22.669C20.848 22.751 20.44 22.75 20.055 22.75L20.055 22.75L3.945 22.75L3.945 22.75C3.56 22.75 3.152 22.751 2.808 22.669C2.368 22.563 2.011 22.324 1.756 21.895C1.528 21.512 1.445 21.122 1.537 20.697C1.606 20.376 1.778 20.061 1.919 19.802C2.14 19.395 2.415 18.977 2.613 18.762C3.004 18.338 3.456 17.975 3.954 17.686C4.464 17.39 5.031 17.201 5.952 16.894L5.952 16.894L7.41 16.407L8.291 13.763C8.422 13.37 8.846 13.158 9.239 13.289Z" fill="currentColor"/>
</svg>
