<svg xmlns="http://www.w3.org/2000/svg" width="24" height="24" viewBox="0 0 24 24">
  <path d="M21.611 7.899C21.851 8.236 21.772 8.705 21.434 8.945C21.097 9.185 20.629 9.105 20.389 8.768L21.611 7.899ZM5 21.25C4.586 21.25 4.25 20.914 4.25 20.5C4.25 20.086 4.586 19.75 5 19.75L5 21.25ZM20.389 8.768C19.537 7.569 18.525 6.75 16.978 6.75L16.978 5.25C19.205 5.25 20.613 6.494 21.611 7.899L20.389 8.768ZM5 19.75C5.87 19.75 6.528 19.553 7.05 19.236C7.576 18.917 8.006 18.449 8.376 17.844C9.134 16.6 9.561 14.913 10.042 13.062C10.505 11.276 11.02 9.334 12.005 7.851C12.508 7.094 13.146 6.435 13.979 5.969C14.813 5.501 15.804 5.25 16.978 5.25L16.978 6.75C16.025 6.75 15.293 6.952 14.711 7.277C14.128 7.604 13.655 8.078 13.255 8.681C12.434 9.916 11.971 11.599 11.494 13.438C11.033 15.212 10.556 17.15 9.656 18.625C9.196 19.379 8.609 20.044 7.829 20.518C7.045 20.994 6.11 21.25 5 21.25L5 19.75Z" fill="currentColor"/>
  <path d="M21 21.75C21.414 21.75 21.75 21.414 21.75 21C21.75 20.586 21.414 20.25 21 20.25L21 21.75ZM3.75 3C3.75 2.586 3.414 2.25 3 2.25C2.586 2.25 2.25 2.586 2.25 3L3.75 3ZM4.025 19.975L3.495 20.505L3.495 20.505L4.025 19.975ZM21 20.25L10 20.25L10 21.75L21 21.75L21 20.25ZM3.75 14L3.75 3L2.25 3L2.25 14L3.75 14ZM10 20.25C8.329 20.25 7.151 20.248 6.259 20.129C5.39 20.012 4.905 19.795 4.555 19.445L3.495 20.505C4.17 21.18 5.023 21.476 6.06 21.615C7.074 21.752 8.371 21.75 10 21.75L10 20.25ZM2.25 14C2.25 15.629 2.248 16.926 2.385 17.94C2.524 18.977 2.82 19.83 3.495 20.505L4.555 19.445C4.205 19.095 3.988 18.61 3.871 17.741C3.752 16.849 3.75 15.671 3.75 14L2.25 14Z" fill="currentColor"/>
</svg>
