<svg xmlns="http://www.w3.org/2000/svg" width="24" height="24" viewBox="0 0 24 24">
  <path d="M11.122 10.133L11.325 10.855L11.325 10.855L11.122 10.133ZM9.78 11.582L10.512 11.743L10.512 11.743L9.78 11.582ZM7.304 18L7.271 17.25L7.304 18ZM18 7.096L17.25 7.091L18 7.096ZM2.381 2.466L1.831 1.955L2.381 2.466ZM17.25 7.091C17.249 7.214 17.171 7.433 16.719 7.729C16.281 8.015 15.644 8.268 14.901 8.49C14.167 8.709 13.381 8.882 12.672 9.029C11.987 9.171 11.325 9.297 10.92 9.411L11.325 10.855C11.664 10.76 12.233 10.652 12.976 10.498C13.693 10.35 14.531 10.166 15.329 9.928C16.117 9.693 16.92 9.39 17.54 8.984C18.146 8.588 18.744 7.979 18.75 7.1L17.25 7.091ZM10.512 11.743C10.611 11.292 10.69 11.166 10.743 11.109C10.791 11.057 10.901 10.974 11.325 10.855L10.92 9.411C10.448 9.543 9.99 9.715 9.643 10.089C9.299 10.459 9.155 10.931 9.047 11.42L10.512 11.743ZM18.75 7.1C18.752 6.751 18.589 6.467 18.443 6.275C18.288 6.074 18.086 5.888 17.87 5.718C17.435 5.377 16.841 5.026 16.162 4.681C14.797 3.987 12.977 3.264 11.112 2.664C9.249 2.064 7.306 1.575 5.694 1.364C4.891 1.258 4.139 1.218 3.507 1.278C2.911 1.336 2.256 1.498 1.831 1.955L2.93 2.976C2.965 2.939 3.142 2.821 3.651 2.772C4.124 2.726 4.751 2.753 5.499 2.851C6.99 3.046 8.839 3.508 10.653 4.091C12.465 4.675 14.207 5.369 15.482 6.018C16.124 6.344 16.62 6.645 16.945 6.899C17.108 7.027 17.203 7.124 17.251 7.186C17.306 7.259 17.249 7.22 17.25 7.091L18.75 7.1ZM7.271 17.25C7.414 17.244 7.465 17.309 7.395 17.257C7.337 17.213 7.242 17.123 7.115 16.964C6.862 16.648 6.559 16.161 6.228 15.528C5.569 14.269 4.854 12.544 4.241 10.742C3.629 8.94 3.131 7.096 2.896 5.6C2.778 4.85 2.73 4.216 2.757 3.731C2.786 3.209 2.895 3.015 2.93 2.976L1.831 1.955C1.42 2.399 1.293 3.053 1.26 3.648C1.224 4.281 1.288 5.031 1.414 5.833C1.667 7.443 2.192 9.375 2.821 11.225C3.45 13.076 4.194 14.877 4.899 16.223C5.249 16.892 5.603 17.476 5.944 17.902C6.113 18.113 6.299 18.311 6.501 18.461C6.691 18.602 6.981 18.765 7.337 18.749L7.271 17.25ZM9.047 11.42C8.575 13.568 8.234 15.108 7.884 16.124C7.708 16.633 7.551 16.943 7.417 17.117C7.354 17.199 7.31 17.232 7.292 17.243C7.279 17.251 7.276 17.25 7.271 17.25L7.337 18.749C7.891 18.724 8.307 18.42 8.605 18.033C8.889 17.664 9.109 17.17 9.302 16.613C9.688 15.495 10.049 13.849 10.512 11.743L9.047 11.42Z" fill="currentColor"/>
  <path d="M14.344 20.655L14.874 20.124L14.874 20.124L14.344 20.655ZM16.468 12.299C16.057 12.354 15.769 12.731 15.824 13.142C15.879 13.553 16.256 13.841 16.667 13.786L16.468 12.299ZM17.746 13.786C18.156 13.841 18.534 13.553 18.589 13.142C18.644 12.731 18.355 12.354 17.945 12.299L17.746 13.786ZM20.566 13.383C20.237 13.132 19.766 13.195 19.515 13.524C19.263 13.853 19.326 14.324 19.656 14.575L20.566 13.383ZM20.424 15.344C20.676 15.673 21.146 15.737 21.476 15.485C21.805 15.234 21.868 14.763 21.617 14.434L20.424 15.344ZM22.701 17.057C22.646 16.646 22.269 16.358 21.858 16.412C21.448 16.467 21.159 16.845 21.214 17.255L22.701 17.057ZM21.214 18.332C21.159 18.743 21.448 19.12 21.858 19.175C22.269 19.23 22.646 18.941 22.701 18.531L21.214 18.332ZM14.953 14.731C15.253 14.446 15.266 13.971 14.981 13.67C14.696 13.37 14.222 13.357 13.921 13.642L14.953 14.731ZM21.429 21.005C21.708 20.699 21.686 20.224 21.38 19.945C21.074 19.666 20.6 19.688 20.321 19.994L21.429 21.005ZM16.667 13.786C17.025 13.738 17.388 13.738 17.746 13.786L17.945 12.299C17.455 12.234 16.958 12.234 16.468 12.299L16.667 13.786ZM21.214 17.255C21.262 17.612 21.262 17.975 21.214 18.332L22.701 18.531C22.766 18.042 22.766 17.546 22.701 17.057L21.214 17.255ZM14.874 20.124C13.39 18.641 13.334 16.264 14.953 14.731L13.921 13.642C11.667 15.777 11.755 19.127 13.813 21.185L14.874 20.124ZM20.321 19.994C18.794 21.668 16.375 21.625 14.874 20.124L13.813 21.185C15.893 23.264 19.301 23.338 21.429 21.005L20.321 19.994ZM19.656 14.575C19.94 14.793 20.207 15.06 20.424 15.344L21.617 14.434C21.318 14.043 20.956 13.681 20.566 13.383L19.656 14.575Z" fill="currentColor"/>
</svg>
