<svg xmlns="http://www.w3.org/2000/svg" width="24" height="24" viewBox="0 0 24 24">
  <path d="M7.324 16.21C7.661 15.969 7.738 15.5 7.496 15.163C7.254 14.827 6.786 14.75 6.449 14.992L7.324 16.21ZM2.723 18.591L3.157 19.202L3.16 19.2L2.723 18.591ZM7.995 16.535C8.236 16.197 8.157 15.729 7.819 15.489C7.482 15.248 7.014 15.327 6.774 15.664L7.995 16.535ZM4.406 20.283L5.016 20.719L5.017 20.718L4.406 20.283ZM2.306 18.973L1.734 18.487L1.734 18.487L2.306 18.973ZM4.03 20.692L3.544 20.121L3.544 20.121L4.03 20.692ZM9.315 18.034L8.785 18.563C8.935 18.714 9.143 18.794 9.357 18.782C9.57 18.771 9.768 18.669 9.901 18.502L9.315 18.034ZM4.943 13.654L4.489 13.057C4.317 13.188 4.21 13.387 4.195 13.603C4.18 13.819 4.26 14.031 4.412 14.184L4.943 13.654ZM20.531 3.53C20.823 3.237 20.823 2.762 20.53 2.469C20.237 2.177 19.762 2.177 19.469 2.47L20.531 3.53ZM6.449 14.992L2.286 17.981L3.16 19.2L7.324 16.21L6.449 14.992ZM6.774 15.664L3.795 19.848L5.017 20.718L7.995 16.535L6.774 15.664ZM1.734 18.487C0.161 20.341 2.676 22.831 4.516 21.263L3.544 20.121C3.407 20.238 3.293 20.256 3.209 20.248C3.11 20.24 2.998 20.19 2.905 20.096C2.811 20.002 2.761 19.891 2.752 19.793C2.744 19.709 2.761 19.595 2.878 19.458L1.734 18.487ZM3.795 19.847C3.723 19.949 3.638 20.041 3.544 20.121L4.516 21.263C4.705 21.103 4.873 20.92 5.016 20.719L3.795 19.847ZM2.289 17.979C2.084 18.125 1.897 18.295 1.734 18.487L2.878 19.458C2.96 19.362 3.054 19.276 3.157 19.202L2.289 17.979ZM9.315 18.034C9.846 17.504 9.846 17.504 9.846 17.504C9.846 17.504 9.846 17.504 9.846 17.504C9.846 17.504 9.846 17.504 9.846 17.503C9.846 17.503 9.846 17.503 9.845 17.503C9.845 17.502 9.844 17.502 9.843 17.501C9.842 17.499 9.839 17.496 9.835 17.493C9.828 17.486 9.817 17.475 9.803 17.461C9.775 17.433 9.734 17.391 9.68 17.337C9.573 17.23 9.417 17.074 9.223 16.879C8.835 16.491 8.294 15.949 7.684 15.338L6.623 16.398C7.233 17.009 7.773 17.551 8.161 17.939C8.355 18.133 8.511 18.289 8.618 18.397C8.672 18.451 8.714 18.492 8.742 18.521C8.756 18.535 8.766 18.545 8.774 18.553C8.777 18.556 8.78 18.559 8.782 18.561C8.783 18.562 8.783 18.562 8.784 18.563C8.784 18.563 8.784 18.563 8.784 18.563C8.784 18.563 8.784 18.563 8.784 18.563C8.785 18.563 8.785 18.563 8.785 18.563C8.785 18.563 8.785 18.563 9.315 18.034ZM7.684 15.338C7.074 14.727 6.521 14.173 6.121 13.773C5.921 13.572 5.759 13.41 5.648 13.298C5.592 13.242 5.548 13.199 5.519 13.169C5.504 13.155 5.493 13.143 5.485 13.136C5.482 13.132 5.479 13.129 5.477 13.127C5.476 13.126 5.475 13.125 5.475 13.125C5.474 13.125 5.474 13.125 5.474 13.124C5.474 13.124 5.474 13.124 5.474 13.124C5.474 13.124 5.474 13.124 5.474 13.124C5.474 13.124 5.474 13.124 4.943 13.654C4.412 14.184 4.412 14.184 4.412 14.184C4.412 14.184 4.412 14.184 4.412 14.184C4.413 14.184 4.413 14.184 4.413 14.184C4.413 14.184 4.413 14.185 4.413 14.185C4.414 14.185 4.414 14.186 4.415 14.187C4.417 14.189 4.42 14.192 4.424 14.195C4.431 14.203 4.443 14.214 4.457 14.229C4.487 14.259 4.53 14.302 4.586 14.358C4.698 14.47 4.86 14.632 5.06 14.832C5.46 15.233 6.012 15.787 6.623 16.398L7.684 15.338ZM4.943 13.654C5.397 14.251 5.397 14.251 5.397 14.251C5.397 14.251 5.396 14.252 5.396 14.252C5.396 14.252 5.396 14.252 5.395 14.253C5.395 14.253 5.394 14.253 5.394 14.254C5.393 14.254 5.393 14.254 5.394 14.254C5.394 14.253 5.397 14.252 5.401 14.249C5.409 14.243 5.425 14.232 5.447 14.217C5.492 14.188 5.562 14.145 5.653 14.098C5.837 14.001 6.094 13.891 6.393 13.83C6.959 13.715 7.708 13.761 8.481 14.536L9.543 13.476C8.36 12.291 7.074 12.161 6.095 12.36C5.621 12.456 5.228 12.626 4.955 12.77C4.817 12.842 4.707 12.909 4.628 12.961C4.589 12.986 4.557 13.008 4.534 13.025C4.522 13.033 4.513 13.04 4.505 13.045C4.501 13.048 4.498 13.05 4.495 13.052C4.494 13.053 4.493 13.054 4.492 13.055C4.491 13.056 4.491 13.056 4.49 13.056C4.49 13.057 4.49 13.057 4.49 13.057C4.489 13.057 4.489 13.057 4.943 13.654ZM8.481 14.536C9.253 15.309 9.287 16.043 9.165 16.592C9.1 16.885 8.987 17.136 8.887 17.316C8.838 17.405 8.794 17.473 8.764 17.517C8.749 17.538 8.738 17.554 8.732 17.562C8.729 17.566 8.727 17.568 8.726 17.569C8.726 17.569 8.726 17.569 8.727 17.569C8.727 17.568 8.727 17.568 8.728 17.567C8.728 17.567 8.728 17.567 8.729 17.566C8.729 17.566 8.729 17.566 8.729 17.566C8.729 17.565 8.73 17.565 9.315 18.034C9.901 18.502 9.901 18.502 9.902 18.501C9.902 18.501 9.902 18.501 9.902 18.501C9.902 18.5 9.903 18.5 9.903 18.499C9.904 18.498 9.905 18.497 9.906 18.496C9.908 18.493 9.911 18.49 9.914 18.486C9.919 18.479 9.926 18.469 9.935 18.458C9.952 18.435 9.975 18.404 10.001 18.365C10.054 18.288 10.124 18.179 10.199 18.043C10.348 17.774 10.526 17.386 10.63 16.917C10.845 15.943 10.728 14.663 9.543 13.476L8.481 14.536ZM19.469 2.47L8.481 13.476L9.543 14.536L20.531 3.53L19.469 2.47Z" fill="currentColor"/>
  <path d="M17.551 14.992C17.214 14.75 16.746 14.827 16.504 15.163C16.262 15.5 16.339 15.969 16.676 16.21L17.551 14.992ZM21.277 18.591L20.84 19.2L20.843 19.202L21.277 18.591ZM17.226 15.664C16.986 15.327 16.518 15.248 16.181 15.489C15.843 15.729 15.764 16.197 16.005 16.535L17.226 15.664ZM19.594 20.283L18.983 20.718L18.984 20.719L19.594 20.283ZM21.694 18.973L22.266 18.487L22.266 18.487L21.694 18.973ZM19.97 20.692L20.456 20.121L20.456 20.121L19.97 20.692ZM14.685 18.034L14.099 18.502C14.232 18.669 14.43 18.771 14.643 18.782C14.857 18.794 15.065 18.714 15.215 18.563L14.685 18.034ZM19.057 13.654L19.588 14.184C19.74 14.031 19.82 13.819 19.805 13.603C19.79 13.387 19.683 13.188 19.511 13.057L19.057 13.654ZM4.531 2.47C4.238 2.177 3.763 2.177 3.47 2.469C3.177 2.762 3.177 3.237 3.469 3.53L4.531 2.47ZM16.676 16.21L20.84 19.2L21.714 17.981L17.551 14.992L16.676 16.21ZM16.005 16.535L18.983 20.718L20.205 19.848L17.226 15.664L16.005 16.535ZM21.122 19.458C21.239 19.595 21.256 19.709 21.248 19.793C21.239 19.891 21.189 20.002 21.095 20.096C21.002 20.19 20.89 20.24 20.791 20.248C20.707 20.256 20.593 20.238 20.456 20.121L19.484 21.263C21.324 22.831 23.839 20.341 22.266 18.487L21.122 19.458ZM18.984 20.719C19.127 20.92 19.295 21.103 19.484 21.263L20.456 20.121C20.362 20.041 20.277 19.949 20.205 19.847L18.984 20.719ZM20.843 19.202C20.946 19.276 21.04 19.362 21.122 19.458L22.266 18.487C22.103 18.295 21.916 18.125 21.711 17.979L20.843 19.202ZM14.685 18.034C15.215 18.563 15.215 18.563 15.215 18.563C15.215 18.563 15.215 18.563 15.216 18.563C15.216 18.563 15.216 18.563 15.216 18.563C15.216 18.563 15.216 18.563 15.216 18.563C15.217 18.562 15.217 18.562 15.218 18.561C15.22 18.559 15.223 18.556 15.226 18.553C15.234 18.545 15.244 18.535 15.258 18.521C15.286 18.492 15.328 18.451 15.382 18.397C15.489 18.289 15.645 18.133 15.839 17.939C16.227 17.551 16.767 17.009 17.377 16.398L16.316 15.338C15.706 15.949 15.165 16.491 14.777 16.879C14.583 17.074 14.427 17.23 14.32 17.337C14.266 17.391 14.225 17.433 14.197 17.461C14.183 17.475 14.172 17.486 14.165 17.493C14.161 17.496 14.158 17.499 14.157 17.501C14.156 17.502 14.155 17.502 14.155 17.503C14.154 17.503 14.154 17.503 14.154 17.503C14.154 17.504 14.154 17.504 14.154 17.504C14.154 17.504 14.154 17.504 14.154 17.504C14.154 17.504 14.154 17.504 14.685 18.034ZM17.377 16.398C17.988 15.787 18.54 15.233 18.94 14.832C19.14 14.632 19.302 14.47 19.414 14.358C19.47 14.302 19.513 14.259 19.543 14.229C19.557 14.214 19.569 14.203 19.576 14.195C19.58 14.192 19.583 14.189 19.585 14.187C19.586 14.186 19.586 14.185 19.587 14.185C19.587 14.185 19.587 14.184 19.587 14.184C19.587 14.184 19.588 14.184 19.588 14.184C19.588 14.184 19.588 14.184 19.588 14.184C19.588 14.184 19.588 14.184 19.057 13.654C18.526 13.124 18.526 13.124 18.526 13.124C18.526 13.124 18.526 13.124 18.526 13.124C18.526 13.124 18.526 13.124 18.526 13.124C18.526 13.125 18.526 13.125 18.525 13.125C18.525 13.125 18.524 13.126 18.523 13.127C18.521 13.129 18.518 13.132 18.515 13.136C18.507 13.143 18.496 13.155 18.481 13.169C18.452 13.199 18.408 13.242 18.352 13.298C18.241 13.41 18.079 13.572 17.879 13.773C17.479 14.173 16.926 14.727 16.316 15.338L17.377 16.398ZM19.057 13.654C19.511 13.057 19.511 13.057 19.51 13.057C19.51 13.057 19.51 13.057 19.51 13.056C19.509 13.056 19.509 13.056 19.508 13.055C19.507 13.054 19.506 13.053 19.505 13.052C19.502 13.05 19.499 13.048 19.495 13.045C19.487 13.04 19.478 13.033 19.466 13.025C19.443 13.008 19.411 12.986 19.372 12.961C19.293 12.909 19.183 12.842 19.045 12.77C18.772 12.626 18.379 12.456 17.905 12.36C16.926 12.161 15.64 12.291 14.457 13.476L15.519 14.536C16.292 13.761 17.041 13.715 17.607 13.83C17.906 13.891 18.163 14.001 18.347 14.098C18.438 14.145 18.508 14.188 18.553 14.217C18.575 14.232 18.591 14.243 18.599 14.249C18.603 14.252 18.606 14.253 18.606 14.254C18.607 14.254 18.607 14.254 18.606 14.254C18.606 14.253 18.605 14.253 18.605 14.253C18.604 14.252 18.604 14.252 18.604 14.252C18.604 14.252 18.603 14.251 18.603 14.251C18.603 14.251 18.603 14.251 19.057 13.654ZM14.457 13.476C13.272 14.663 13.155 15.943 13.37 16.917C13.474 17.386 13.652 17.774 13.801 18.043C13.876 18.179 13.946 18.288 13.999 18.365C14.025 18.404 14.048 18.435 14.065 18.458C14.074 18.469 14.081 18.479 14.086 18.486C14.089 18.49 14.092 18.493 14.094 18.496C14.095 18.497 14.096 18.498 14.097 18.499C14.097 18.5 14.098 18.5 14.098 18.501C14.098 18.501 14.098 18.501 14.098 18.501C14.099 18.502 14.099 18.502 14.685 18.034C15.27 17.565 15.271 17.565 15.271 17.566C15.271 17.566 15.271 17.566 15.271 17.566C15.272 17.567 15.272 17.567 15.272 17.567C15.273 17.568 15.273 17.568 15.273 17.569C15.274 17.569 15.274 17.569 15.274 17.569C15.273 17.568 15.271 17.566 15.268 17.562C15.262 17.554 15.251 17.538 15.236 17.517C15.206 17.473 15.162 17.405 15.113 17.316C15.013 17.136 14.9 16.885 14.835 16.592C14.713 16.043 14.747 15.309 15.519 14.536L14.457 13.476ZM3.469 3.53L14.457 14.536L15.519 13.476L4.531 2.47L3.469 3.53Z" fill="currentColor"/>
</svg>
