<svg xmlns="http://www.w3.org/2000/svg" width="24" height="24" viewBox="0 0 24 24">
  <path d="M2.711 14.762C2.58 14.369 2.155 14.157 1.762 14.289C1.369 14.42 1.157 14.845 1.289 15.238L2.711 14.762ZM1.823 16.566C2 16.94 2.447 17.1 2.822 16.923C3.196 16.746 3.356 16.299 3.178 15.924L1.823 16.566ZM4.694 18.257C4.424 17.943 3.95 17.908 3.636 18.178C3.322 18.448 3.287 18.921 3.557 19.235L4.694 18.257ZM4.642 20.341C4.951 20.617 5.425 20.59 5.701 20.281C5.977 19.972 5.95 19.498 5.641 19.222L4.642 20.341ZM8.77 22.714C9.164 22.841 9.587 22.624 9.714 22.23C9.841 21.836 9.624 21.413 9.23 21.286L8.77 22.714ZM8.019 20.805C7.645 20.627 7.197 20.786 7.019 21.16C6.841 21.534 7 21.981 7.374 22.159L8.019 20.805ZM3.178 15.924C3.001 15.549 2.845 15.161 2.711 14.762L1.289 15.238C1.441 15.694 1.62 16.137 1.823 16.566L3.178 15.924ZM5.641 19.222C5.305 18.922 4.989 18.6 4.694 18.257L3.557 19.235C3.894 19.628 4.257 19.997 4.642 20.341L5.641 19.222ZM9.23 21.286C8.814 21.152 8.41 20.991 8.019 20.805L7.374 22.159C7.824 22.374 8.29 22.559 8.77 22.714L9.23 21.286Z" fill="currentColor"/>
  <path d="M11.25 16C11.25 16.414 11.586 16.75 12 16.75C12.414 16.75 12.75 16.414 12.75 16L11.25 16ZM6 11.25C5.586 11.25 5.25 11.586 5.25 12C5.25 12.414 5.586 12.75 6 12.75L6 11.25ZM12.75 12C12.75 12.414 12.414 12.75 12 12.75L12 14.25C13.243 14.25 14.25 13.243 14.25 12L12.75 12ZM12 12.75C11.586 12.75 11.25 12.414 11.25 12L9.75 12C9.75 13.243 10.757 14.25 12 14.25L12 12.75ZM11.25 12C11.25 11.586 11.586 11.25 12 11.25L12 9.75C10.757 9.75 9.75 10.757 9.75 12L11.25 12ZM12 11.25C12.414 11.25 12.75 11.586 12.75 12L14.25 12C14.25 10.757 13.243 9.75 12 9.75L12 11.25ZM10.5 11.25L6 11.25L6 12.75L10.5 12.75L10.5 11.25ZM12.75 16L12.75 13.5L11.25 13.5L11.25 16L12.75 16Z" fill="currentColor"/>
  <path d="M12 21.25C11.586 21.25 11.25 21.586 11.25 22C11.25 22.414 11.586 22.75 12 22.75L12 21.25ZM1.25 12C1.25 12.414 1.586 12.75 2 12.75C2.414 12.75 2.75 12.414 2.75 12L1.25 12ZM12 2.75C17.109 2.75 21.25 6.891 21.25 12L22.75 12C22.75 6.063 17.937 1.25 12 1.25L12 2.75ZM21.25 12C21.25 17.109 17.109 21.25 12 21.25L12 22.75C17.937 22.75 22.75 17.937 22.75 12L21.25 12ZM2.75 12C2.75 6.891 6.891 2.75 12 2.75L12 1.25C6.063 1.25 1.25 6.063 1.25 12L2.75 12Z" fill="currentColor"/>
</svg>
